<svg width="321" height="84" viewBox="0 0 321 84" fill="none" xmlns="http://www.w3.org/2000/svg">
<g clip-path="url(#clip0_2_2)">
<path d="M117.186 38.6099C117.186 17.3401 90.95 -2.06412e-05 58.5929 -2.06412e-05C26.2314 -2.06412e-05 0.00439952 17.3401 0.00439952 38.6099C0.00439952 39.1592 -3.05176e-05 40.682 -3.05176e-05 40.874C-3.05176e-05 63.4344 22.9247 81.7123 58.584 81.7123C94.4694 81.7123 117.186 63.4433 117.186 40.874V38.6099Z" fill="#28316B"/>
<path d="M114.939 38.5925C114.939 58.6433 89.723 74.9026 58.6026 74.9026C27.4911 74.9026 2.27026 58.6433 2.27026 38.5925C2.27026 18.5373 27.4911 2.27793 58.6026 2.27793C89.723 2.27793 114.939 18.5373 114.939 38.5925Z" fill="#50B4E9"/>
<path d="M39.8989 27.136C39.8679 27.194 39.305 27.7835 39.6684 28.2479C40.5593 29.3956 43.3075 30.0476 46.0866 29.4224C47.74 29.0472 49.8542 27.3503 51.9065 25.7114C54.1316 23.9296 56.3434 22.1434 58.5596 21.4378C60.9088 20.6831 62.4115 21.0046 63.4088 21.3038C64.4991 21.6387 65.7846 22.3577 67.8279 23.9073C71.6842 26.8278 87.1846 40.457 89.8573 42.8148C92.0204 41.8324 101.603 37.6704 114.63 34.7856C113.5 27.7879 109.272 21.3842 102.867 16.1415C93.9397 19.9195 83.0269 21.8933 72.3579 16.6372C72.3047 16.6238 66.5292 13.8641 60.8291 14.0025C52.363 14.199 48.6929 17.8921 44.8101 21.7995L39.8989 27.136Z" fill="white"/>
<path d="M89.2319 44.2965C89.0502 44.1357 71.01 28.2247 66.9188 25.13C64.5563 23.3437 63.2399 22.8882 61.857 22.7096C61.1345 22.6203 60.146 22.7498 59.4457 22.9463C57.5486 23.4643 55.062 25.1389 52.8546 26.8984C50.5674 28.7382 48.4133 30.4619 46.4142 30.9174C43.8611 31.4935 40.7406 30.8103 39.3134 29.8412C38.7372 29.4527 38.3338 28.9972 38.1388 28.5417C37.6113 27.3092 38.582 26.3312 38.7372 26.1615L43.7193 20.7402C44.2955 20.1597 44.8806 19.5747 45.479 18.9986C43.8744 19.213 42.3895 19.6283 40.9401 20.0302C39.1361 20.5437 37.403 21.026 35.6433 21.026C34.9119 21.026 30.9848 20.383 30.2401 20.1776C25.7367 18.9272 21.7785 17.7259 15.8744 14.9438C8.79578 20.2535 4.06189 26.8939 2.69669 34.2041C3.71172 34.4765 5.34731 34.9633 6.03434 35.1151C22.0577 38.7055 27.0443 42.4031 27.9529 43.1756C28.9325 42.0771 30.342 41.3804 31.92 41.3804C33.6974 41.3894 35.2931 42.2825 36.2638 43.6668C37.1814 42.9345 38.4446 42.3182 40.0802 42.3182C40.8204 42.3182 41.5917 42.4522 42.3718 42.7201C44.1802 43.3408 45.1111 44.5555 45.5942 45.6585C46.2014 45.3772 46.9461 45.1718 47.8237 45.1762C48.6881 45.1762 49.5879 45.3727 50.4877 45.7657C53.4397 47.0429 53.9007 49.9723 53.6347 52.1739C53.8475 52.1471 54.0514 52.1382 54.273 52.1382C57.7702 52.1426 60.6247 55.0051 60.6203 58.5374C60.6203 59.6315 60.341 60.6541 59.8623 61.5607C60.8153 62.0965 63.2443 63.3201 65.3719 63.0477C67.0784 62.8289 67.7256 62.2439 67.956 61.9134C68.1156 61.6902 68.284 61.4222 68.1245 61.2302L63.6122 56.1706C63.6122 56.1706 62.8631 55.4651 63.1069 55.1882C63.364 54.9113 63.825 55.3132 64.153 55.5856C66.4446 57.5237 69.2592 60.4398 69.2592 60.4398C69.3035 60.4755 69.4941 60.8417 70.5269 61.0293C71.4222 61.19 73.0046 61.1007 74.1039 60.1942C74.3787 59.9664 74.6579 59.6762 74.8884 59.3859C74.8707 59.3993 74.853 59.4172 74.8352 59.4261C75.9921 57.9346 74.7067 56.4252 74.7067 56.4252L69.4321 50.4591C69.4321 50.4591 68.6741 49.7535 68.9312 49.4677C69.1617 49.2266 69.6492 49.5972 69.9773 49.8741C71.6483 51.2763 74.0108 53.6699 76.2714 55.9027C76.7146 56.2242 78.7048 57.4657 81.3377 55.7241C82.9334 54.6657 83.2525 53.3707 83.2126 52.3882C83.0974 51.0932 82.0956 50.1688 82.0956 50.1688L74.8884 42.872C74.8884 42.872 74.126 42.2155 74.392 41.885C74.6136 41.6037 75.1056 42.0056 75.4336 42.2825C77.7296 44.2161 83.9484 49.9589 83.9484 49.9589C84.0326 50.0214 86.1868 51.5621 88.833 49.8562C89.786 49.2444 90.3932 48.3245 90.442 47.2572C90.5351 45.395 89.2319 44.2965 89.2319 44.2965Z" fill="white"/>
<path d="M54.2699 53.5506C53.153 53.5372 51.934 54.2071 51.77 54.1088C51.6814 54.0508 51.8409 53.5998 51.9473 53.3363C52.0493 53.0818 53.5209 48.6206 49.935 47.0665C47.1868 45.8787 45.5114 47.2139 44.9351 47.8212C44.78 47.9775 44.7135 47.9641 44.6958 47.7632C44.6426 46.9594 44.288 44.7846 41.9166 44.0567C38.5258 43.0162 36.3494 45.3964 35.7954 46.2538C35.5516 44.3112 33.9204 42.8018 31.9214 42.7974C29.7495 42.7974 27.9854 44.5702 27.9854 46.7584C27.9854 48.9421 29.745 50.715 31.917 50.715C32.9719 50.7194 33.9293 50.2952 34.6341 49.6119C34.6562 49.6343 34.6651 49.67 34.6518 49.7459C34.4878 50.7239 34.1864 54.283 37.8875 55.7343C39.3724 56.3149 40.6312 55.8817 41.6773 55.1404C41.9875 54.9216 42.0363 55.0154 41.992 55.3101C41.859 56.2256 42.0274 58.186 44.7578 59.2979C46.8322 60.1509 48.06 59.2801 48.8623 58.5298C49.2125 58.2083 49.31 58.2664 49.3322 58.7576C49.4252 61.4102 51.6105 63.509 54.2655 63.5135C56.9959 63.5135 59.2122 61.2896 59.2122 58.5388C59.2122 55.7835 57.0003 53.5819 54.2699 53.5506Z" fill="white"/>
<path d="M54.2699 63.1576C51.7922 63.1576 49.7798 61.215 49.6912 58.75C49.6823 58.5357 49.6602 57.973 49.1903 57.973C48.9953 57.973 48.8224 58.0891 48.6318 58.2632C48.0822 58.7768 47.3907 59.2903 46.3801 59.2903C45.9192 59.2903 45.4227 59.1832 44.8953 58.9688C42.2801 57.9015 42.2446 56.0885 42.351 55.3606C42.3776 55.1686 42.3865 54.9676 42.2579 54.8113L42.0939 54.6684H41.9344C41.8014 54.6684 41.6596 54.7175 41.4778 54.8515C40.7199 55.3874 39.9929 55.6419 39.2571 55.6419C38.8494 55.6419 38.4371 55.566 38.0161 55.4008C34.5765 54.0521 34.8468 50.7788 35.0153 49.7919C35.0374 49.591 34.9887 49.4391 34.8646 49.332L34.6208 49.1265L34.3947 49.3498C33.721 50.0063 32.8434 50.3591 31.9214 50.3591C29.9534 50.3591 28.3444 48.7425 28.3444 46.7553C28.3444 44.7681 29.9578 43.156 31.9258 43.156C33.7077 43.156 35.228 44.5046 35.4541 46.3043L35.5782 47.2688L36.1012 46.4516C36.1633 46.3534 37.6083 44.1518 40.2678 44.1518C40.7686 44.1518 41.2917 44.2411 41.8147 44.4019C43.9378 45.0494 44.2924 46.983 44.3501 47.7958C44.39 48.2647 44.718 48.287 44.7844 48.287C44.9617 48.287 45.1036 48.1709 45.1967 48.0682C45.5956 47.644 46.4644 46.9473 47.8296 46.9473C48.4545 46.9518 49.115 47.0947 49.7976 47.3939C53.1663 48.8497 51.6371 53.1635 51.6193 53.2037C51.3312 53.9182 51.3223 54.2352 51.5927 54.4139L51.7257 54.4808H51.8232C51.9739 54.4808 52.1601 54.4139 52.4748 54.3067C52.9313 54.1459 53.6228 53.9092 54.2699 53.9092H54.2744C56.8053 53.9405 58.8664 56.0126 58.8664 58.5401C58.862 61.0855 56.8009 63.1576 54.2699 63.1576ZM89.9292 42.3968C84.3753 37.5069 71.53 26.2535 68.0461 23.6233C66.0603 22.1184 64.704 21.319 63.5161 20.9662C62.9798 20.8055 62.2395 20.6179 61.2866 20.6179C60.4045 20.6179 59.4559 20.7787 58.4586 21.0957C56.2069 21.8102 53.973 23.6054 51.8011 25.3381L51.6947 25.4274C49.6735 27.044 47.5902 28.7186 46.0122 29.0714C45.3208 29.2276 44.6116 29.308 43.9068 29.308C42.1383 29.308 40.5514 28.7945 39.9575 28.0264C39.8555 27.9014 39.922 27.7004 40.1481 27.4012L40.1791 27.361L45.0681 22.0514C48.8978 18.1975 52.5147 14.5491 60.8433 14.3571C60.9807 14.3526 61.1226 14.3481 61.26 14.3481C66.4415 14.3571 71.6231 16.6926 72.2037 16.9605C77.0662 19.3541 82.0793 20.5688 87.1235 20.5732C92.3804 20.5732 97.8013 19.2603 103.501 16.6167C102.863 16.0763 102.198 15.5539 101.52 15.0358C96.5114 17.224 91.7421 18.3315 87.1368 18.3315C82.4339 18.3226 77.7355 17.1838 73.1789 14.9421C72.9351 14.8304 67.2172 12.1064 61.26 12.1064C61.1048 12.1064 60.9497 12.1064 60.7946 12.1108C53.8001 12.2761 49.8596 14.7813 47.209 16.9695C44.6293 17.0364 42.4086 17.6616 40.4318 18.2198C38.6632 18.7111 37.1429 19.1398 35.658 19.1398C35.0419 19.1398 33.9426 19.0862 33.8451 19.0817C32.1342 19.0281 23.5219 16.9025 16.6692 14.2856C15.9689 14.7858 15.2952 15.2993 14.6436 15.8263C21.8021 18.7781 30.5119 21.0689 33.26 21.2431C34.0224 21.3011 34.838 21.386 35.6535 21.386C37.4709 21.386 39.2837 20.8724 41.0434 20.3812C42.0806 20.082 43.2242 19.765 44.4254 19.5283C44.1063 19.8498 43.7871 20.1713 43.4636 20.4973L38.4948 25.9097C38.1091 26.3071 37.2537 27.3699 37.8166 28.6784C38.0382 29.2053 38.4859 29.7099 39.1242 30.1386C40.3076 30.9425 42.4264 31.4828 44.3944 31.4828C45.139 31.4873 45.8527 31.4113 46.4998 31.2595C48.5831 30.7951 50.7639 29.0401 53.0776 27.1869C54.9215 25.7087 57.5411 23.8376 59.5446 23.2839C60.1075 23.1321 60.799 23.0383 61.353 23.0383C61.517 23.0427 61.6722 23.0427 61.814 23.0606C63.1393 23.2348 64.4248 23.6858 66.7119 25.4185C70.7898 28.5042 88.8344 44.4108 89.0117 44.5671C89.025 44.5761 90.173 45.5719 90.0932 47.242C90.0489 48.1664 89.5392 48.9881 88.6527 49.5597C87.8814 50.0509 87.0836 50.301 86.2857 50.301C85.0757 50.301 84.2468 49.7294 84.1936 49.6892C84.1227 49.6356 77.9438 43.9241 75.6655 42.0083C75.3065 41.7046 74.9563 41.4322 74.6017 41.4322C74.4067 41.4322 74.2383 41.5126 74.123 41.6555C73.764 42.1021 74.1673 42.7183 74.6416 43.1247L81.8665 50.4305C81.8754 50.4394 82.7663 51.2834 82.8594 52.4088C82.917 53.619 82.3408 54.6327 81.144 55.4231C80.293 55.9902 79.4331 56.276 78.5865 56.276C77.474 56.276 76.7027 55.767 76.5254 55.6419L75.4926 54.6193C73.5955 52.7392 71.6408 50.7967 70.2136 49.5954C69.8634 49.3007 69.4911 49.0328 69.1365 49.0328C68.9592 49.0328 68.7996 49.1042 68.6799 49.2293C68.5159 49.4123 68.4007 49.7383 68.8085 50.2831C68.9769 50.5109 69.1719 50.694 69.1719 50.694L74.4466 56.6556C74.4909 56.7137 75.5281 57.9596 74.5618 59.201L74.3757 59.4422C74.2161 59.6163 74.0477 59.7726 73.8881 59.9155C72.9883 60.6613 71.7871 60.7372 71.3128 60.7372C71.0557 60.7372 70.8075 60.7149 70.5992 60.6747C70.0762 60.5854 69.726 60.438 69.562 60.2371L69.4999 60.1656C69.2074 59.8709 66.5523 57.1334 64.3538 55.2891C64.0657 55.048 63.7023 54.7354 63.3299 54.7354C63.1438 54.7354 62.9798 54.8113 62.8557 54.9497C62.4168 55.432 63.0684 56.151 63.3477 56.41L67.8466 61.4026C67.8422 61.4472 67.7801 61.5544 67.6693 61.7107C67.5098 61.9385 66.9646 62.4877 65.3378 62.6932C65.1428 62.7155 64.9389 62.7244 64.7395 62.7244C63.0551 62.7244 61.2644 61.9027 60.338 61.4071C60.7635 60.5139 60.9807 59.5315 60.9807 58.5401C60.9807 54.8113 57.9755 51.7791 54.2744 51.7791C54.1946 51.7791 54.1148 51.7791 54.0306 51.7836C54.1591 50.0822 53.9198 46.858 50.6353 45.4424C49.6912 45.0271 48.7471 44.8217 47.8296 44.8217C47.1159 44.8217 46.4245 44.9422 45.7729 45.1968C45.0992 43.8616 43.9689 42.8925 42.4929 42.3879C41.6773 42.1021 40.8706 41.9592 40.086 41.9592C38.7164 41.9592 37.462 42.3611 36.3406 43.1649C35.2635 41.8208 33.6368 41.0214 31.9258 41.0214C30.4321 41.0214 28.9915 41.6243 27.9233 42.6916C26.5271 41.6109 20.9732 38.0607 6.11995 34.6623C5.40189 34.5016 3.75301 34.0237 2.73797 33.7245C2.56954 34.5328 2.44543 35.35 2.35678 36.1762C2.35678 36.1762 5.09605 36.8371 5.63681 36.9621C20.8092 40.3605 25.8267 43.8883 26.6733 44.5537C26.3852 45.2504 26.239 46.0006 26.2345 46.7553C26.2345 49.917 28.7832 52.4847 31.9214 52.4892C32.2716 52.4892 32.6173 52.4579 32.963 52.3954C33.4373 54.7175 34.9443 56.4815 37.2537 57.3835C37.923 57.647 38.61 57.781 39.2793 57.781C39.7137 57.781 40.1436 57.7274 40.5736 57.6202C40.9991 58.7053 41.961 60.0674 44.1018 60.9426C44.8554 61.2463 45.6045 61.4026 46.3358 61.4026C46.9342 61.4026 47.5193 61.2999 48.0733 61.0945C49.1017 63.6175 51.544 65.2877 54.2699 65.2877C56.074 65.2922 57.8071 64.5509 59.0747 63.238C60.1563 63.8408 62.4434 64.9349 64.7483 64.9394C65.0497 64.9394 65.329 64.926 65.6127 64.8903C67.9042 64.5955 68.968 63.6935 69.46 62.9924C69.5487 62.8673 69.6285 62.7334 69.695 62.6038C70.2402 62.7601 70.8297 62.8852 71.5167 62.8852C72.7667 62.8852 73.9679 62.4609 75.1868 61.5678C76.3747 60.697 77.2257 59.4556 77.3454 58.3972C77.3498 58.3838 77.3543 58.366 77.3543 58.3481C77.7576 58.4329 78.1743 58.4731 78.5776 58.4731C79.8719 58.4731 81.1396 58.0712 82.3497 57.2719C84.6856 55.7268 85.0934 53.7128 85.0579 52.3909C85.4657 52.4713 85.8824 52.5204 86.299 52.5204C87.5091 52.5204 88.697 52.1542 89.8273 51.4263C91.2811 50.493 92.1499 49.064 92.2829 47.4028C92.3759 46.273 92.0967 45.1343 91.5027 44.1518C95.4211 42.4504 104.37 39.1637 114.915 36.7701C114.849 35.944 114.733 35.1312 114.583 34.3229C101.83 37.1765 92.3139 41.3206 89.9292 42.3968Z" fill="#28316B"/>
<path d="M311.592 29.3254C310.563 30.6964 309.101 31.3841 307.177 31.3841C305.262 31.3841 303.786 30.6964 302.753 29.3254C301.716 27.9545 301.202 26.003 301.202 23.471C301.202 20.9434 301.716 18.9964 302.753 17.6344C303.786 16.2679 305.262 15.5847 307.177 15.5847C309.101 15.5847 310.563 16.2679 311.592 17.6344C312.611 18.9964 313.13 20.9434 313.13 23.471C313.13 26.003 312.611 27.9545 311.592 29.3254ZM316.831 14.0083C314.712 11.3423 311.503 10.0071 307.199 10.0071C302.895 10.0071 299.681 11.3423 297.567 14.0083C295.448 16.6787 294.394 19.8315 294.394 23.471C294.394 27.1775 295.448 30.3436 297.567 32.9739C299.681 35.5997 302.895 36.917 307.199 36.917C311.503 36.917 314.712 35.5997 316.831 32.9739C318.945 30.3436 320 27.1775 320 23.471C320 19.8315 318.945 16.6787 316.831 14.0083" fill="#28316B"/>
<path d="M259.449 26.2071C259.405 28.422 258.776 29.9493 257.565 30.7844C256.36 31.6239 255.034 32.0437 253.603 32.0437C252.694 32.0437 251.927 31.7847 251.293 31.2845C250.66 30.7754 250.345 29.9627 250.345 28.8284C250.345 27.5646 250.864 26.6268 251.896 26.0195C252.512 25.6667 253.514 25.3631 254.919 25.1219L256.417 24.8361C257.158 24.6932 257.747 24.5414 258.177 24.3806C258.612 24.2243 259.028 24.0144 259.449 23.742V26.2071ZM262.782 11.7786C260.642 10.68 258.186 10.1308 255.425 10.1308C251.174 10.1308 248.177 11.2427 246.431 13.4711C245.332 14.9001 244.72 16.722 244.578 18.937H250.921C251.076 17.9546 251.391 17.182 251.856 16.6149C252.512 15.8379 253.625 15.4493 255.198 15.4493C256.599 15.4493 257.667 15.6458 258.394 16.0477C259.112 16.4362 259.476 17.1552 259.476 18.1912C259.476 19.0442 259.002 19.6649 258.062 20.0713C257.53 20.308 256.657 20.5 255.433 20.6563L253.182 20.9287C250.629 21.2591 248.687 21.8039 247.375 22.5631C244.973 23.9564 243.776 26.2071 243.776 29.3196C243.776 31.7177 244.516 33.5709 246.014 34.8838C247.504 36.1922 249.392 36.7415 251.684 36.8487C266.027 37.4962 265.867 29.2348 266 27.5155V18.0037C266 14.9537 264.923 12.8771 262.782 11.7786" fill="#28316B"/>
<path d="M230.071 15.7932C231.711 15.7932 232.917 16.3023 233.693 17.3249C234.224 18.0751 234.561 18.9281 234.69 19.8703H241.768C241.378 16.271 240.133 13.7658 238.019 12.3457C235.9 10.9256 233.192 10.2111 229.881 10.2111C225.98 10.2111 222.926 11.4213 220.71 13.8283C218.494 16.2398 217.385 19.6069 217.385 23.9341C217.385 27.77 218.387 30.896 220.391 33.3074C222.399 35.7144 225.528 36.9157 229.779 36.9157C234.038 36.9157 237.247 35.4733 239.41 32.5885C240.771 30.7933 241.529 28.8999 241.689 26.8858H234.637C234.495 28.2166 234.083 29.2973 233.4 30.1324C232.722 30.9585 231.574 31.3828 229.952 31.3828C227.669 31.3828 226.109 30.3333 225.289 28.23C224.832 27.1091 224.606 25.6221 224.606 23.7733C224.606 21.8352 224.832 20.2812 225.289 19.1022C226.144 16.9007 227.744 15.7932 230.071 15.7932Z" fill="#28316B"/>
<path d="M215.488 10.2111C200.954 10.2111 201.81 23.1794 201.81 23.1794V36.353H208.405V23.9966C208.405 21.9736 208.667 20.4732 209.163 19.4952C210.072 17.767 211.84 16.9007 214.478 16.9007C214.673 16.9007 214.939 16.9141 215.258 16.9319C215.581 16.9453 215.949 16.9766 216.366 17.0212V10.2647C216.073 10.2424 215.883 10.2335 215.799 10.2245C215.719 10.2201 215.612 10.2111 215.488 10.2111Z" fill="#28316B"/>
<path d="M182.392 17.0927C183.318 16.1326 184.621 15.6548 186.306 15.6548C187.848 15.6548 189.143 16.1013 190.193 17.0123C191.23 17.9233 191.815 19.2496 191.931 21.0001H180.646C180.88 19.3568 181.47 18.0573 182.392 17.0927ZM191.257 29.467C190.978 29.8644 190.685 30.2083 190.357 30.4718C189.422 31.2443 188.159 31.481 186.669 31.481C185.255 31.481 184.152 31.2666 183.159 30.6325C181.514 29.6144 180.583 27.8906 180.482 25.3586H198.739C198.761 23.1749 198.695 21.5048 198.517 20.3482C198.216 18.3699 197.547 16.6283 196.523 15.1278C195.384 13.4264 193.934 12.1805 192.192 11.3901C190.441 10.6041 188.482 10.2111 186.306 10.2111C182.631 10.2111 179.644 11.3767 177.339 13.7077C175.043 16.0433 173.886 19.397 173.886 23.7688C173.886 28.4354 175.163 31.807 177.711 33.8746C180.26 35.9466 183.208 36.9827 186.541 36.9827C190.579 36.9827 193.721 35.7546 195.964 33.2985C197.179 32.0079 197.932 30.7308 198.256 29.467H191.257Z" fill="#28316B"/>
<path d="M171.237 36.3463H165.213V21.0604C165.213 19.6671 164.752 16.3447 160.781 16.3447C158.13 16.3447 156.211 18.2694 156.211 21.0604V36.3463H150.183V21.0604C150.183 19.6671 149.771 16.3447 145.799 16.3447C143.1 16.3447 141.225 18.2694 141.225 21.0604V36.3463H135.197V21.2078C135.197 14.8934 139.359 10.1241 145.799 10.1241C148.995 10.1241 151.597 11.4772 153.29 13.643C155.072 11.4772 157.718 10.1241 160.781 10.1241C167.359 10.1241 171.237 14.6969 171.237 21.2078V36.3463Z" fill="#28316B"/>
<path d="M284.521 29.3777C283.559 30.771 282.14 31.4631 280.292 31.4631C278.435 31.4631 277.052 30.762 276.139 29.3687C275.23 27.971 274.778 25.9347 274.778 23.6036C274.778 21.4378 275.221 19.6292 276.117 18.1689C277.017 16.7131 278.417 15.9808 280.336 15.9808C281.595 15.9808 282.695 16.3827 283.648 17.1865C285.19 18.5083 285.97 20.8974 285.97 23.9832C285.97 26.1892 285.483 27.9889 284.521 29.3777ZM292.428 2.23105C292.428 2.23105 285.788 1.51654 285.788 6.89318L285.78 14.0159C285.044 12.8191 284.086 11.8902 282.912 11.2248C281.733 10.5505 280.385 10.2111 278.865 10.2111C275.563 10.2111 272.943 11.4481 270.971 13.9132C268.998 16.3916 268.014 19.9507 268.014 24.2601C268.014 27.9933 269.016 31.0612 271.015 33.4459C273.018 35.8261 276.937 36.8755 280.421 36.8755C292.566 36.8755 292.424 26.3812 292.424 26.3812L292.428 2.23105Z" fill="#28316B"/>
<path d="M152.841 60.5456C152.841 58.0359 152.357 56.1157 151.382 54.7626C150.412 53.414 149.024 52.7352 147.211 52.7352C145.469 52.7352 144.109 53.414 143.138 54.7626C142.234 55.9862 141.786 57.9154 141.786 60.5456C141.786 62.9973 142.265 64.8193 143.24 66.0384C144.206 67.3959 145.598 68.0702 147.406 68.0702C149.086 68.0702 150.412 67.3959 151.382 66.0384C152.357 64.6942 152.841 62.8678 152.841 60.5456ZM141.786 78.5243C141.786 79.4621 141.431 80.2659 140.727 80.9179C140.097 81.5073 139.246 81.8065 138.382 81.8065H135.19V58.7103C135.19 54.2178 136.693 51.4089 139.166 49.5066C140.953 48.1356 143.696 46.8316 149.131 47.0862C151.932 47.2157 154.631 48.4437 156.413 50.623C158.612 53.3247 159.529 56.3301 159.529 60.2598C159.529 64.3102 158.559 67.5746 156.622 70.0932C154.685 72.5359 152.193 73.755 149.153 73.755C147.535 73.755 146.112 73.4647 144.889 72.8887C143.59 72.2456 142.566 71.2453 141.786 69.8967V78.5243Z" fill="#50B4E9"/>
<path d="M192.373 60.5501C192.373 64.9755 193.646 67.4316 196.185 67.9184C198.725 68.3917 200.596 67.8023 201.806 66.1321C202.378 65.4355 202.79 64.3191 203.042 62.8142C203.295 61.3048 203.313 59.8132 203.091 58.3351C202.87 56.8525 202.346 55.5396 201.518 54.383C200.693 53.2264 199.483 52.6459 197.901 52.6459C195.742 52.6459 194.284 53.4542 193.521 55.0573C192.75 56.6605 192.373 58.4914 192.373 60.5501ZM203.233 71.6204V69.9904C202.089 71.7946 200.551 72.911 198.614 73.362C196.677 73.8086 194.754 73.6523 192.852 72.8752C190.946 72.1072 189.315 70.6826 187.945 68.5972C186.58 66.4983 185.902 63.7564 185.902 60.3536C185.902 56.3747 186.806 53.146 188.61 50.6765C190.423 48.2026 193.331 47.0772 197.329 46.9656C201.274 46.8629 203.561 47.7605 205.804 49.4708C208.259 51.3464 209.709 54.2223 209.709 58.7147V72.3036C209.718 76.6264 206.726 84.6422 197.329 83.959C191.509 83.5303 188.273 81.1233 186.474 75.6752H193.424C193.934 76.5683 194.709 77.2605 195.76 77.7428C196.806 78.2296 197.856 78.3501 198.898 78.1313C199.944 77.9036 200.897 77.2739 201.761 76.2513C202.617 75.2197 203.104 73.6791 203.233 71.6204" fill="#50B4E9"/>
<path d="M176.925 63.2277C176.885 65.4471 176.256 66.9699 175.046 67.805C173.84 68.6445 172.515 69.0643 171.083 69.0643C170.174 69.0643 169.403 68.8053 168.769 68.3051C168.14 67.8005 167.821 66.9833 167.821 65.849C167.821 64.5852 168.339 63.6475 169.376 63.0401C169.993 62.6873 170.994 62.3837 172.395 62.1425L173.893 61.8567C174.638 61.7138 175.227 61.5665 175.653 61.4012C176.087 61.2449 176.504 61.0351 176.925 60.7627V63.2277ZM180.258 48.7992C178.117 47.7051 175.657 47.1514 172.896 47.1514C168.65 47.1514 165.653 48.2633 163.907 50.4961C162.816 51.9207 162.2 53.7427 162.058 55.9576H168.401C168.556 54.9752 168.871 54.2026 169.337 53.6355C169.993 52.8629 171.105 52.47 172.674 52.47C174.084 52.47 175.148 52.6664 175.87 53.0684C176.588 53.4569 176.956 54.1758 176.956 55.2119C176.956 56.0648 176.482 56.69 175.542 57.0964C175.01 57.3286 174.137 57.5206 172.909 57.6769L170.662 57.9493C168.109 58.2798 166.163 58.8246 164.855 59.5837C162.449 60.977 161.252 63.2277 161.252 66.3402C161.252 68.7383 161.996 70.5915 163.49 71.9C164.979 73.2129 166.872 73.7621 169.164 73.8693C183.503 74.5168 183.343 66.2509 183.476 64.5361V55.0243C183.476 51.9743 182.404 49.9022 180.258 48.7992Z" fill="#50B4E9"/>
<path d="M229.417 66.2018C228.394 67.5772 226.926 68.2649 225.007 68.2649C223.092 68.2649 221.616 67.5772 220.584 66.2018C219.542 64.8308 219.028 62.8838 219.028 60.3518C219.028 57.8287 219.542 55.8772 220.584 54.5197C221.616 53.1487 223.092 52.4699 225.007 52.4699C226.926 52.4699 228.394 53.1487 229.417 54.5197C230.441 55.8772 230.96 57.8287 230.96 60.3518C230.96 62.8838 230.441 64.8308 229.417 66.2018ZM234.661 50.8936C232.542 48.2231 229.333 46.8879 225.025 46.8879C220.725 46.8879 217.512 48.2231 215.398 50.8936C213.279 53.564 212.224 56.7168 212.224 60.3518C212.224 64.0583 213.279 67.2244 215.398 69.8547C217.512 72.4805 220.725 73.7979 225.025 73.7979C229.333 73.7979 232.542 72.4805 234.661 69.8547C236.771 67.2244 237.826 64.0583 237.826 60.3518C237.826 56.7168 236.771 53.564 234.661 50.8936" fill="#50B4E9"/>
</g>
<defs>
<clipPath id="clip0_2_2">
<rect width="320" height="84" fill="white"/>
</clipPath>
</defs>
</svg>
